<?xml version="1.0" standalone="no"?>
<!DOCTYPE svg PUBLIC "-//W3C//DTD SVG 20010904//EN"
 "http://www.w3.org/TR/2001/REC-SVG-20010904/DTD/svg10.dtd">
<svg version="1.0" xmlns="http://www.w3.org/2000/svg"
 width="273.000000pt" height="273.000000pt" viewBox="0 0 273.000000 273.000000"
 preserveAspectRatio="xMidYMid meet">
<metadata>
Created by potrace 1.14, written by Peter Selinger 2001-2017
</metadata>
<g transform="translate(0.000000,273.000000) scale(0.100000,-0.100000)"
fill="#000000" stroke="none">
<path d="M1130 2686 c-502 -89 -896 -425 -1054 -897 -50 -148 -67 -260 -68
-424 0 -349 125 -660 365 -911 202 -211 422 -334 710 -396 136 -29 407 -31
542 -4 278 55 517 181 709 372 193 193 320 438 371 714 21 111 21 337 0 453
-95 539 -503 961 -1045 1082 -101 23 -426 29 -530 11z m764 -1038 c20 -57 68
-204 107 -328 39 -124 74 -231 76 -237 4 -10 -24 -13 -118 -13 -68 0 -129 4
-135 8 -11 7 -16 20 -28 75 l-6 27 -96 0 c-67 0 -96 -4 -99 -12 -2 -7 -9 -32
-15 -56 l-11 -42 -417 2 -417 3 -3 77 -3 77 137 168 136 168 -126 3 -126 3 0
47 c0 26 -3 64 -6 85 l-7 37 287 0 286 0 0 -80 c0 -96 4 -89 -147 -265 -62
-71 -113 -133 -113 -137 0 -5 61 -8 135 -8 l134 0 3 -67 3 -68 104 318 105
317 162 0 162 0 36 -102z"/>
<path d="M1687 1603 c-7 -10 -67 -257 -67 -271 0 -8 25 -12 75 -12 l75 0 -6
33 c-7 40 -44 216 -50 240 -6 18 -19 23 -27 10z"/>
</g>
</svg>
