<svg width="1879" height="2776" viewBox="0 0 1879 2776" fill="none" xmlns="http://www.w3.org/2000/svg">
<rect width="1879" height="2776" fill="none"/>
<path d="M521.89 732.836C512.822 750.7 502.079 767.931 495.033 786.565C481.665 821.931 472.959 859.228 457.645 893.659C437.85 938.169 413.588 978.499 348.106 966.172C338.963 964.452 329.005 967.062 319.424 967.666C318.971 970.472 318.504 973.279 318.051 976.07C328.763 978.559 339.431 982.935 350.188 983.146C374.676 983.629 387.561 995.035 395.332 1018.2C407.583 1054.72 423.954 1089.86 436.733 1126.24C458.037 1186.86 467.226 1248.72 453.692 1312.95C451.067 1325.45 454.386 1339.89 457.539 1352.79C463.937 1378.87 472.597 1404.4 479.176 1430.46C480.79 1436.83 477.969 1444.31 477.003 1452.91C470.636 1450.69 467.86 1449.62 465.023 1448.76C458.897 1446.92 452.741 1445.19 446.601 1443.41C445.107 1449.85 442.059 1456.35 442.331 1462.72C446.208 1553.7 450.765 1644.65 454.522 1735.63C455.095 1749.37 452.093 1763.23 451.399 1777.06C450.131 1802.11 446.495 1826.11 457.373 1851.75C469.097 1879.37 469.942 1910.35 453.073 1939C449.135 1945.68 447.883 1955.43 448.909 1963.32C466.864 2101.78 462.911 2240.99 464.676 2380.04C465.008 2406.46 472.265 2433.52 480.805 2458.78C485.301 2472.07 497.553 2485.1 509.714 2492.99C536.751 2510.5 565.479 2525.65 594.433 2539.89C610.818 2547.95 629.06 2552.22 646.411 2558.36C651.631 2560.22 656.656 2562.63 661.77 2564.79C661.529 2567.97 661.303 2571.16 661.061 2574.34C646.2 2574.78 631.081 2577.19 616.537 2575.26C583.66 2570.9 551.191 2563.27 518.284 2559.28C502.683 2557.4 485.679 2558.17 470.636 2562.41C429.778 2573.93 387.109 2559.64 395.332 2500.35C404.611 2433.39 391.167 2368.07 368.43 2304.79C329.805 2197.28 310.899 2086.21 320.344 1972.56C325.172 1914.62 317.146 1861.28 298.21 1807.55C289.459 1782.75 287.075 1755.77 279.848 1730.32C272.681 1705.05 263.055 1680.47 254.515 1655.59C252.282 1655.65 250.034 1655.69 247.801 1655.75C248.51 1668.88 247.318 1682.46 250.306 1695.04C258.393 1729.07 268.019 1762.74 277.494 1796.43C285.612 1825.27 295.162 1853.72 302.586 1882.72C310.945 1915.37 297.577 1942.56 279.365 1968.83C270.584 1981.5 262.603 1996.05 259.147 2010.89C232.306 2125.88 206.913 2241.2 180.388 2356.26C175.213 2378.71 166.22 2400.26 160.291 2422.56C147.828 2469.37 169.042 2504.45 214.698 2519.48C238.673 2527.37 260.822 2540.68 284.269 2550.43C297.003 2555.72 310.718 2558.69 323.981 2562.72C323.694 2565.27 323.392 2567.84 323.105 2570.39C317.176 2571.08 311.201 2572.58 305.302 2572.35C249.793 2570.19 194.299 2567.17 138.76 2565.73C121.952 2565.29 105.054 2570.3 88.1703 2570.49C65.5685 2570.75 56.0631 2557.5 61.7814 2535.52C63.8937 2527.4 66.7454 2518.88 71.5132 2512.15C92.8476 2482.06 93.5266 2449.06 92.6213 2413.44C90.6598 2337.23 88.7135 2260.47 95.7898 2184.77C101.327 2125.52 111.527 2063.58 135.366 2009.79C190.225 1886 190.301 1754.5 205.54 1624.72C208.331 1600.89 218.41 1577.99 222.906 1554.26C224.837 1544.04 224.46 1530.79 219.436 1522.29C178.774 1453.45 175.696 1383.37 211.65 1312.53C235.957 1264.63 228.323 1217.61 205.313 1174.54C177.461 1122.39 144.856 1072.39 110.425 1024.25C73.9122 973.203 64.6481 885.165 96.2122 831.029C101.493 821.976 109.158 812.425 118.15 807.824C137.795 797.775 137.372 783.592 134.113 765.155C126.041 719.529 102.791 686.35 62.8225 662.194C49.877 654.364 37.9575 637.314 34.7136 622.483C27.1696 587.992 30.6247 553.003 49.6507 521.65C54.3732 513.879 60.2877 504.404 67.9373 501.281C99.7428 488.29 131.79 471.045 164.953 467.876C190.105 465.477 217.671 480.535 243.003 490.689C256.96 496.272 268.261 508.221 281.266 516.49C300.413 528.666 300.217 543.648 287.271 559.324C273.134 576.464 276.076 591.009 289.686 606.701C300.866 619.601 313.6 630.676 304.2 653.172C297.682 668.773 316.316 669.542 327.345 669.044C365.171 667.339 402.936 664.563 440.731 662.179C447.657 661.742 454.658 660.399 461.477 661.018C476.807 662.406 481.182 657.608 480.443 641.177C480.005 631.294 487.806 616.161 496.195 611.982C507.451 606.369 522.855 608.843 536.465 608.904C537.129 608.904 540.267 621.095 537.868 624.037C533.372 629.544 525.013 631.702 519.491 636.635C514.723 640.89 511.253 646.85 508.175 652.568C507.511 653.79 511.72 659.524 512.414 659.297C518.57 657.291 526.552 656.023 530.052 651.497C548.339 627.854 574.547 626.134 599.261 629.997C639.093 636.243 677.462 636.198 715.982 623.81C725.17 620.853 739.519 614.924 741.088 632.667C742.386 647.333 730.542 649.536 718.743 649.294C690.92 648.721 662.902 645.914 635.321 648.253C616.009 649.898 596.228 656.31 578.575 664.669C560.681 673.148 553.514 688.357 557.482 710.793C564.151 748.558 562.823 787.923 571.469 825.084C583.509 876.851 602.339 926.989 616.929 978.212C628.29 1018.07 609.385 1044.96 568.104 1049.61C532.738 1053.59 501.43 1039.24 470.575 1025.23C453.843 1017.64 437.774 1007.91 422.943 997.042C410.269 987.748 406.301 976.085 424.919 967.183C429.038 965.206 434.063 962.913 436.175 959.307C453.496 929.719 476.656 939.315 500.404 948.595C532.602 961.163 537.687 956.033 534.111 920.968C528.8 868.915 517.167 816.892 531.682 764.31C534.126 755.453 532.029 745.344 532.029 735.824C528.679 734.813 525.285 733.832 521.89 732.836ZM247.334 838.754C264.157 848.772 275.08 855.351 286.064 861.793C321.325 882.494 370.965 875.87 393.385 846.177C422.611 807.462 450.961 768.067 479.13 728.566C484.109 721.581 486.418 712.679 490.265 703.988C463.665 697.772 440.188 688.402 416.455 687.678C384.317 686.682 351.984 692.446 319.711 695.011C304.487 696.218 294.906 703.475 293.458 718.97C291.3 742.055 279.516 750.067 257.292 744.167C253.188 743.081 248.541 744.017 237.194 744.017C247.334 766.648 253.731 786.821 264.775 804.006C276.514 822.263 277.645 833.383 247.334 838.754ZM235.761 1633.53C238.884 1633.29 242.007 1633.05 245.131 1632.79C244.542 1620.92 243.954 1609.04 243.38 1597.18C240.846 1597.26 238.296 1597.35 235.761 1597.42C235.761 1609.46 235.761 1621.5 235.761 1633.53Z" fill="#FF866F"/>
<path d="M1268.46 1196H1246.54C925.919 1196 666 935.875 666 615C666 294.125 925.919 34 1246.54 34H1268.46C1589.08 34 1849 294.125 1849 615C1849 935.875 1589.09 1196 1268.46 1196Z" fill="#1E4398"/>
<path d="M629 644C648.2 642.4 669.833 591.333 669 567L702.5 616C693.833 667.167 675.1 754.5 673.5 706.5C671.9 658.5 638.667 646.5 629 644Z" fill="#1E4398"/>
</svg>
