<svg fill="#222222" xmlns="http://www.w3.org/2000/svg" xmlns:xlink="http://www.w3.org/1999/xlink" version="1.1" x="0px" y="0px" viewBox="0 0 100 100" enable-background="new 0 0 100 100" xml:space="preserve"><g><polygon points="85,35 75,35 75,45 65,45 65,35 55,35 45,35 35,35 25,35 15,35 5,35 5,45 5,55 15,55 25,55 35,55 45,55 55,55    65,55 75,55 75,65 85,65 85,55 95,55 95,45 85,45  "></polygon><rect x="65" y="25" width="10" height="10"></rect><rect x="55" y="15" width="10" height="10"></rect><rect x="65" y="65" width="10" height="10"></rect><rect x="55" y="75" width="10" height="10"></rect></g></svg>